<svg width="80" height="24" viewBox="0 0 80 24" fill="none" xmlns="http://www.w3.org/2000/svg">
<path fill-rule="evenodd" clip-rule="evenodd" d="M26 12C26 14.2091 24.2091 16 22 16C19.7909 16 18 14.2091 18 12C18 9.79086 19.7909 8 22 8C24.2091 8 26 9.79086 26 12ZM40 16C42.2091 16 44 14.2091 44 12C44 9.79086 42.2091 8 40 8C37.7909 8 36 9.79086 36 12C36 14.2091 37.7909 16 40 16ZM62 12C62 14.2091 60.2091 16 58 16C55.7909 16 54 14.2091 54 12C54 9.79086 55.7909 8 58 8C60.2091 8 62 9.79086 62 12ZM80 12C80 14.2091 78.2091 16 76 16C73.7909 16 72 14.2091 72 12C72 9.79086 73.7909 8 76 8C78.2091 8 80 9.79086 80 12Z" fill="#EAEAEA"/>
<path fill-rule="evenodd" clip-rule="evenodd" d="M4 16C6.20914 16 8 14.2091 8 12C8 9.79086 6.20914 8 4 8C1.79086 8 0 9.79086 0 12C0 14.2091 1.79086 16 4 16Z" fill="#0D6EFD"/>
</svg>
