<svg width="32" height="32" viewBox="0 0 32 32" fill="none" xmlns="http://www.w3.org/2000/svg">
<path fill-rule="evenodd" clip-rule="evenodd" d="M16 32C24.8366 32 32 24.8366 32 16C32 7.16344 24.8366 0 16 0C7.16344 0 0 7.16344 0 16C0 24.8366 7.16344 32 16 32Z" fill="#E6F0FF"/>
<path fill-rule="evenodd" clip-rule="evenodd" d="M18.5 9.33331C18.7531 9.33331 18.9623 9.52142 18.9954 9.76547L19 9.83331V10.6666H19.8333C20.8459 10.6666 21.6667 11.4875 21.6667 12.5V15.1666V20.5C21.6667 21.5125 20.8459 22.3333 19.8333 22.3333H11.8333C10.8208 22.3333 10 21.5125 10 20.5V15.1666V12.5C10 11.4875 10.8208 10.6666 11.8333 10.6666H12.6667V9.83331C12.6667 9.55717 12.8905 9.33331 13.1667 9.33331C13.4198 9.33331 13.629 9.52142 13.6621 9.76547L13.6667 9.83331V10.6666H18V9.83331C18 9.55717 18.2239 9.33331 18.5 9.33331ZM20.6667 12.5V14.6666H11V12.5C11 12.0397 11.3731 11.6666 11.8333 11.6666H12.6667V12.5L12.6712 12.5678C12.7043 12.8119 12.9135 13 13.1667 13C13.4428 13 13.6667 12.7761 13.6667 12.5V11.6666H18V12.5L18.0046 12.5678C18.0377 12.8119 18.2469 13 18.5 13C18.7761 13 19 12.7761 19 12.5V11.6666H19.8333C20.2936 11.6666 20.6667 12.0397 20.6667 12.5ZM20.6667 15.6666H11V20.5C11 20.9602 11.3731 21.3333 11.8333 21.3333H19.8333C20.2936 21.3333 20.6667 20.9602 20.6667 20.5V15.6666ZM14.5 17.3333H13.1667C12.8905 17.3333 12.6667 17.5572 12.6667 17.8333V19.1666C12.6667 19.4428 12.8905 19.6666 13.1667 19.6666H14.5C14.7761 19.6666 15 19.4428 15 19.1666V17.8333C15 17.5572 14.7761 17.3333 14.5 17.3333ZM14 18.3333V18.6666H13.6667V18.3333H14Z" fill="#0D6EFD"/>
</svg>
