<svg width="418" height="435" viewBox="0 0 418 435" fill="none" xmlns="http://www.w3.org/2000/svg">
<g clip-path="url(#clip0_878_101302)">
<rect x="67.2271" y="183" width="252" height="252" rx="90" fill="#FCBC14"/>
<path d="M166.292 278.286V306.286H159.812V283.486H154.212V278.286H166.292ZM196.396 300.406H191.836V306.286H185.516V300.406H170.436V296.046L183.636 278.286H190.436L178.196 295.126H185.716V289.886H191.836V295.126H196.396V300.406ZM209.934 306.766C207.614 306.766 205.547 306.193 203.734 305.046C201.921 303.9 200.494 302.246 199.454 300.086C198.441 297.9 197.934 295.3 197.934 292.286C197.934 289.273 198.441 286.686 199.454 284.526C200.494 282.34 201.921 280.673 203.734 279.526C205.547 278.38 207.614 277.806 209.934 277.806C212.254 277.806 214.321 278.38 216.134 279.526C217.947 280.673 219.361 282.34 220.374 284.526C221.414 286.686 221.934 289.273 221.934 292.286C221.934 295.3 221.414 297.9 220.374 300.086C219.361 302.246 217.947 303.9 216.134 305.046C214.321 306.193 212.254 306.766 209.934 306.766ZM209.934 301.286C211.641 301.286 212.974 300.553 213.934 299.086C214.921 297.62 215.414 295.353 215.414 292.286C215.414 289.22 214.921 286.953 213.934 285.486C212.974 284.02 211.641 283.286 209.934 283.286C208.254 283.286 206.921 284.02 205.934 285.486C204.974 286.953 204.494 289.22 204.494 292.286C204.494 295.353 204.974 297.62 205.934 299.086C206.921 300.553 208.254 301.286 209.934 301.286Z" fill="white"/>
<path d="M148.074 340.75V342.286H136.194V325.486H147.714V327.022H137.97V332.998H146.658V334.51H137.97V340.75H148.074ZM167.632 329.566C169.216 329.566 170.456 330.022 171.352 330.934C172.264 331.846 172.72 333.19 172.72 334.966V342.286H171.016V335.134C171.016 333.822 170.696 332.822 170.056 332.134C169.432 331.446 168.544 331.102 167.392 331.102C166.08 331.102 165.048 331.51 164.296 332.326C163.544 333.126 163.168 334.238 163.168 335.662V342.286H161.464V335.134C161.464 333.822 161.144 332.822 160.504 332.134C159.88 331.446 158.984 331.102 157.816 331.102C156.52 331.102 155.488 331.51 154.72 332.326C153.968 333.126 153.592 334.238 153.592 335.662V342.286H151.888V329.662H153.52V331.966C153.968 331.198 154.592 330.606 155.392 330.19C156.192 329.774 157.112 329.566 158.152 329.566C159.208 329.566 160.12 329.79 160.888 330.238C161.672 330.686 162.256 331.35 162.64 332.23C163.104 331.398 163.768 330.75 164.632 330.286C165.512 329.806 166.512 329.566 167.632 329.566ZM183.845 329.566C185.029 329.566 186.101 329.838 187.061 330.382C188.021 330.91 188.773 331.662 189.317 332.638C189.861 333.614 190.133 334.726 190.133 335.974C190.133 337.238 189.861 338.358 189.317 339.334C188.773 340.31 188.021 341.07 187.061 341.614C186.117 342.142 185.045 342.406 183.845 342.406C182.821 342.406 181.893 342.198 181.061 341.782C180.245 341.35 179.573 340.726 179.045 339.91V346.942H177.341V329.662H178.973V332.158C179.485 331.326 180.157 330.686 180.989 330.238C181.837 329.79 182.789 329.566 183.845 329.566ZM183.725 340.894C184.605 340.894 185.405 340.694 186.125 340.294C186.845 339.878 187.405 339.294 187.805 338.542C188.221 337.79 188.429 336.934 188.429 335.974C188.429 335.014 188.221 334.166 187.805 333.43C187.405 332.678 186.845 332.094 186.125 331.678C185.405 331.262 184.605 331.054 183.725 331.054C182.829 331.054 182.021 331.262 181.301 331.678C180.597 332.094 180.037 332.678 179.621 333.43C179.221 334.166 179.021 335.014 179.021 335.974C179.021 336.934 179.221 337.79 179.621 338.542C180.037 339.294 180.597 339.878 181.301 340.294C182.021 340.694 182.829 340.894 183.725 340.894ZM193.607 324.478H195.311V342.286H193.607V324.478ZM205.212 342.406C203.996 342.406 202.9 342.134 201.924 341.59C200.948 341.03 200.18 340.262 199.62 339.286C199.06 338.31 198.78 337.206 198.78 335.974C198.78 334.742 199.06 333.638 199.62 332.662C200.18 331.686 200.948 330.926 201.924 330.382C202.9 329.838 203.996 329.566 205.212 329.566C206.428 329.566 207.524 329.838 208.5 330.382C209.476 330.926 210.236 331.686 210.78 332.662C211.34 333.638 211.62 334.742 211.62 335.974C211.62 337.206 211.34 338.31 210.78 339.286C210.236 340.262 209.476 341.03 208.5 341.59C207.524 342.134 206.428 342.406 205.212 342.406ZM205.212 340.894C206.108 340.894 206.908 340.694 207.612 340.294C208.332 339.878 208.892 339.294 209.292 338.542C209.692 337.79 209.892 336.934 209.892 335.974C209.892 335.014 209.692 334.158 209.292 333.406C208.892 332.654 208.332 332.078 207.612 331.678C206.908 331.262 206.108 331.054 205.212 331.054C204.316 331.054 203.508 331.262 202.788 331.678C202.084 332.078 201.524 332.654 201.108 333.406C200.708 334.158 200.508 335.014 200.508 335.974C200.508 336.934 200.708 337.79 201.108 338.542C201.524 339.294 202.084 339.878 202.788 340.294C203.508 340.694 204.316 340.894 205.212 340.894ZM225.356 329.662L219.044 343.798C218.532 344.982 217.94 345.822 217.268 346.318C216.596 346.814 215.788 347.062 214.844 347.062C214.236 347.062 213.668 346.966 213.14 346.774C212.612 346.582 212.156 346.294 211.772 345.91L212.564 344.638C213.204 345.278 213.972 345.598 214.868 345.598C215.444 345.598 215.932 345.438 216.332 345.118C216.748 344.798 217.132 344.254 217.484 343.486L218.036 342.262L212.396 329.662H214.172L218.924 340.39L223.676 329.662H225.356ZM238.396 336.502H227.836C227.932 337.814 228.436 338.878 229.348 339.694C230.26 340.494 231.412 340.894 232.804 340.894C233.588 340.894 234.308 340.758 234.964 340.486C235.62 340.198 236.188 339.782 236.668 339.238L237.628 340.342C237.068 341.014 236.364 341.526 235.516 341.878C234.684 342.23 233.764 342.406 232.756 342.406C231.46 342.406 230.308 342.134 229.3 341.59C228.308 341.03 227.532 340.262 226.972 339.286C226.412 338.31 226.132 337.206 226.132 335.974C226.132 334.742 226.396 333.638 226.924 332.662C227.468 331.686 228.204 330.926 229.132 330.382C230.076 329.838 231.132 329.566 232.3 329.566C233.468 329.566 234.516 329.838 235.444 330.382C236.372 330.926 237.1 331.686 237.628 332.662C238.156 333.622 238.42 334.726 238.42 335.974L238.396 336.502ZM232.3 331.03C231.084 331.03 230.06 331.422 229.228 332.206C228.412 332.974 227.948 333.982 227.836 335.23H236.788C236.676 333.982 236.204 332.974 235.372 332.206C234.556 331.422 233.532 331.03 232.3 331.03ZM252.88 336.502H242.32C242.416 337.814 242.92 338.878 243.832 339.694C244.744 340.494 245.896 340.894 247.288 340.894C248.072 340.894 248.792 340.758 249.448 340.486C250.104 340.198 250.672 339.782 251.152 339.238L252.112 340.342C251.552 341.014 250.848 341.526 250 341.878C249.168 342.23 248.248 342.406 247.24 342.406C245.944 342.406 244.792 342.134 243.784 341.59C242.792 341.03 242.016 340.262 241.456 339.286C240.896 338.31 240.616 337.206 240.616 335.974C240.616 334.742 240.88 333.638 241.408 332.662C241.952 331.686 242.688 330.926 243.616 330.382C244.56 329.838 245.616 329.566 246.784 329.566C247.952 329.566 249 329.838 249.928 330.382C250.856 330.926 251.584 331.686 252.112 332.662C252.64 333.622 252.904 334.726 252.904 335.974L252.88 336.502ZM246.784 331.03C245.568 331.03 244.544 331.422 243.712 332.206C242.896 332.974 242.432 333.982 242.32 335.23H251.272C251.16 333.982 250.688 332.974 249.856 332.206C249.04 331.422 248.016 331.03 246.784 331.03Z" fill="white"/>
<rect opacity="0.715053" x="0.227051" y="25" width="198" height="198" rx="70" fill="#F990B6"/>
<g clip-path="url(#clip1_878_101302)">
<path d="M63.9319 104.4C66.3852 104.8 68.2652 105.72 69.5719 107.16C70.8786 108.573 71.5319 110.333 71.5319 112.44C71.5319 114.067 71.1052 115.573 70.2519 116.96C69.3986 118.32 68.0919 119.413 66.3319 120.24C64.5986 121.067 62.4652 121.48 59.9319 121.48C57.9586 121.48 56.0119 121.227 54.0919 120.72C52.1986 120.187 50.5852 119.44 49.2519 118.48L51.7719 113.52C52.8386 114.32 54.0652 114.947 55.4519 115.4C56.8652 115.827 58.3052 116.04 59.7719 116.04C61.3986 116.04 62.6786 115.733 63.6119 115.12C64.5452 114.48 65.0119 113.587 65.0119 112.44C65.0119 110.147 63.2652 109 59.7719 109H56.8119V104.72L62.5719 98.2H50.6519V93H70.2519V97.2L63.9319 104.4ZM86.1238 121.48C83.8038 121.48 81.7371 120.907 79.9238 119.76C78.1104 118.613 76.6838 116.96 75.6438 114.8C74.6304 112.613 74.1238 110.013 74.1238 107C74.1238 103.987 74.6304 101.4 75.6438 99.24C76.6838 97.0533 78.1104 95.3867 79.9238 94.24C81.7371 93.0933 83.8038 92.52 86.1238 92.52C88.4438 92.52 90.5104 93.0933 92.3238 94.24C94.1371 95.3867 95.5504 97.0533 96.5638 99.24C97.6038 101.4 98.1238 103.987 98.1238 107C98.1238 110.013 97.6038 112.613 96.5638 114.8C95.5504 116.96 94.1371 118.613 92.3238 119.76C90.5104 120.907 88.4438 121.48 86.1238 121.48ZM86.1238 116C87.8304 116 89.1638 115.267 90.1238 113.8C91.1104 112.333 91.6038 110.067 91.6038 107C91.6038 103.933 91.1104 101.667 90.1238 100.2C89.1638 98.7333 87.8304 98 86.1238 98C84.4438 98 83.1104 98.7333 82.1238 100.2C81.1638 101.667 80.6838 103.933 80.6838 107C80.6838 110.067 81.1638 112.333 82.1238 113.8C83.1104 115.267 84.4438 116 86.1238 116ZM112.872 121.48C110.552 121.48 108.486 120.907 106.672 119.76C104.859 118.613 103.432 116.96 102.392 114.8C101.379 112.613 100.872 110.013 100.872 107C100.872 103.987 101.379 101.4 102.392 99.24C103.432 97.0533 104.859 95.3867 106.672 94.24C108.486 93.0933 110.552 92.52 112.872 92.52C115.192 92.52 117.259 93.0933 119.072 94.24C120.886 95.3867 122.299 97.0533 123.312 99.24C124.352 101.4 124.872 103.987 124.872 107C124.872 110.013 124.352 112.613 123.312 114.8C122.299 116.96 120.886 118.613 119.072 119.76C117.259 120.907 115.192 121.48 112.872 121.48ZM112.872 116C114.579 116 115.912 115.267 116.872 113.8C117.859 112.333 118.352 110.067 118.352 107C118.352 103.933 117.859 101.667 116.872 100.2C115.912 98.7333 114.579 98 112.872 98C111.192 98 109.859 98.7333 108.872 100.2C107.912 101.667 107.432 103.933 107.432 107C107.432 110.067 107.912 112.333 108.872 113.8C109.859 115.267 111.192 116 112.872 116ZM147.737 109.44H140.777V116.24H135.617V109.44H128.697V104.56H135.617V97.76H140.777V104.56H147.737V109.44Z" fill="white"/>
<path d="M60.6182 140.2C62.7622 140.2 64.4422 140.712 65.6582 141.736C66.8742 142.76 67.4822 144.168 67.4822 145.96C67.4822 147.752 66.8742 149.16 65.6582 150.184C64.4422 151.192 62.7622 151.696 60.6182 151.696H56.1062V157H54.3302V140.2H60.6182ZM60.5702 150.136C62.2342 150.136 63.5062 149.776 64.3862 149.056C65.2662 148.32 65.7062 147.288 65.7062 145.96C65.7062 144.6 65.2662 143.56 64.3862 142.84C63.5062 142.104 62.2342 141.736 60.5702 141.736H56.1062V150.136H60.5702ZM72.2663 146.848C72.6663 146 73.2583 145.36 74.0423 144.928C74.8423 144.496 75.8263 144.28 76.9943 144.28V145.936L76.5863 145.912C75.2583 145.912 74.2183 146.32 73.4663 147.136C72.7143 147.952 72.3383 149.096 72.3383 150.568V157H70.6343V144.376H72.2663V146.848ZM85.1224 157.12C83.9064 157.12 82.8104 156.848 81.8344 156.304C80.8584 155.744 80.0904 154.976 79.5304 154C78.9704 153.024 78.6904 151.92 78.6904 150.688C78.6904 149.456 78.9704 148.352 79.5304 147.376C80.0904 146.4 80.8584 145.64 81.8344 145.096C82.8104 144.552 83.9064 144.28 85.1224 144.28C86.3384 144.28 87.4344 144.552 88.4104 145.096C89.3864 145.64 90.1464 146.4 90.6904 147.376C91.2504 148.352 91.5304 149.456 91.5304 150.688C91.5304 151.92 91.2504 153.024 90.6904 154C90.1464 154.976 89.3864 155.744 88.4104 156.304C87.4344 156.848 86.3384 157.12 85.1224 157.12ZM85.1224 155.608C86.0184 155.608 86.8184 155.408 87.5224 155.008C88.2424 154.592 88.8024 154.008 89.2024 153.256C89.6024 152.504 89.8024 151.648 89.8024 150.688C89.8024 149.728 89.6024 148.872 89.2024 148.12C88.8024 147.368 88.2424 146.792 87.5224 146.392C86.8184 145.976 86.0184 145.768 85.1224 145.768C84.2264 145.768 83.4184 145.976 82.6984 146.392C81.9944 146.792 81.4344 147.368 81.0184 148.12C80.6184 148.872 80.4184 149.728 80.4184 150.688C80.4184 151.648 80.6184 152.504 81.0184 153.256C81.4344 154.008 81.9944 154.592 82.6984 155.008C83.4184 155.408 84.2264 155.608 85.1224 155.608ZM93.1373 161.776C92.6093 161.776 92.1133 161.704 91.6493 161.56C91.1693 161.432 90.7773 161.232 90.4733 160.96L91.0733 159.664C91.5693 160.096 92.2253 160.312 93.0413 160.312C93.7133 160.312 94.2253 160.112 94.5773 159.712C94.9453 159.312 95.1293 158.72 95.1293 157.936V144.376H96.8333V157.936C96.8333 159.12 96.5133 160.056 95.8733 160.744C95.2333 161.432 94.3213 161.776 93.1373 161.776ZM95.9933 141.592C95.6413 141.592 95.3453 141.472 95.1053 141.232C94.8653 140.992 94.7453 140.704 94.7453 140.368C94.7453 140.048 94.8653 139.768 95.1053 139.528C95.3453 139.288 95.6413 139.168 95.9933 139.168C96.3453 139.168 96.6413 139.288 96.8813 139.528C97.1213 139.752 97.2413 140.024 97.2413 140.344C97.2413 140.696 97.1213 140.992 96.8813 141.232C96.6413 141.472 96.3453 141.592 95.9933 141.592ZM112.587 151.216H102.027C102.123 152.528 102.627 153.592 103.539 154.408C104.451 155.208 105.603 155.608 106.995 155.608C107.779 155.608 108.499 155.472 109.155 155.2C109.811 154.912 110.379 154.496 110.859 153.952L111.819 155.056C111.259 155.728 110.555 156.24 109.707 156.592C108.875 156.944 107.955 157.12 106.947 157.12C105.651 157.12 104.499 156.848 103.491 156.304C102.499 155.744 101.723 154.976 101.163 154C100.603 153.024 100.323 151.92 100.323 150.688C100.323 149.456 100.587 148.352 101.115 147.376C101.659 146.4 102.395 145.64 103.323 145.096C104.267 144.552 105.323 144.28 106.491 144.28C107.659 144.28 108.707 144.552 109.635 145.096C110.563 145.64 111.291 146.4 111.819 147.376C112.347 148.336 112.611 149.44 112.611 150.688L112.587 151.216ZM106.491 145.744C105.275 145.744 104.251 146.136 103.419 146.92C102.603 147.688 102.139 148.696 102.027 149.944H110.979C110.867 148.696 110.395 147.688 109.563 146.92C108.747 146.136 107.723 145.744 106.491 145.744ZM121.312 157.12C120.064 157.12 118.944 156.848 117.952 156.304C116.976 155.76 116.208 155 115.648 154.024C115.088 153.032 114.808 151.92 114.808 150.688C114.808 149.456 115.088 148.352 115.648 147.376C116.208 146.4 116.976 145.64 117.952 145.096C118.944 144.552 120.064 144.28 121.312 144.28C122.4 144.28 123.368 144.496 124.216 144.928C125.08 145.344 125.76 145.96 126.256 146.776L124.984 147.64C124.568 147.016 124.04 146.552 123.4 146.248C122.76 145.928 122.064 145.768 121.312 145.768C120.4 145.768 119.576 145.976 118.84 146.392C118.12 146.792 117.552 147.368 117.136 148.12C116.736 148.872 116.536 149.728 116.536 150.688C116.536 151.664 116.736 152.528 117.136 153.28C117.552 154.016 118.12 154.592 118.84 155.008C119.576 155.408 120.4 155.608 121.312 155.608C122.064 155.608 122.76 155.456 123.4 155.152C124.04 154.848 124.568 154.384 124.984 153.76L126.256 154.624C125.76 155.44 125.08 156.064 124.216 156.496C123.352 156.912 122.384 157.12 121.312 157.12ZM136.392 156.232C136.072 156.52 135.672 156.744 135.192 156.904C134.728 157.048 134.24 157.12 133.728 157.12C132.544 157.12 131.632 156.8 130.992 156.16C130.352 155.52 130.032 154.616 130.032 153.448V145.816H127.776V144.376H130.032V141.616H131.736V144.376H135.576V145.816H131.736V153.352C131.736 154.104 131.92 154.68 132.288 155.08C132.672 155.464 133.216 155.656 133.92 155.656C134.272 155.656 134.608 155.6 134.928 155.488C135.264 155.376 135.552 155.216 135.792 155.008L136.392 156.232ZM142.878 157.12C141.854 157.12 140.87 156.976 139.926 156.688C138.998 156.384 138.27 156.008 137.742 155.56L138.51 154.216C139.038 154.632 139.702 154.976 140.502 155.248C141.302 155.504 142.134 155.632 142.998 155.632C144.15 155.632 144.998 155.456 145.542 155.104C146.102 154.736 146.382 154.224 146.382 153.568C146.382 153.104 146.23 152.744 145.926 152.488C145.622 152.216 145.238 152.016 144.774 151.888C144.31 151.744 143.694 151.608 142.926 151.48C141.902 151.288 141.078 151.096 140.454 150.904C139.83 150.696 139.294 150.352 138.846 149.872C138.414 149.392 138.198 148.728 138.198 147.88C138.198 146.824 138.638 145.96 139.518 145.288C140.398 144.616 141.622 144.28 143.19 144.28C144.006 144.28 144.822 144.392 145.638 144.616C146.454 144.824 147.126 145.104 147.654 145.456L146.91 146.824C145.87 146.104 144.63 145.744 143.19 145.744C142.102 145.744 141.278 145.936 140.718 146.32C140.174 146.704 139.902 147.208 139.902 147.832C139.902 148.312 140.054 148.696 140.358 148.984C140.678 149.272 141.07 149.488 141.534 149.632C141.998 149.76 142.638 149.896 143.454 150.04C144.462 150.232 145.27 150.424 145.878 150.616C146.486 150.808 147.006 151.136 147.438 151.6C147.87 152.064 148.086 152.704 148.086 153.52C148.086 154.624 147.622 155.504 146.694 156.16C145.782 156.8 144.51 157.12 142.878 157.12Z" fill="white"/>
</g>
<rect opacity="0.715053" x="167" width="251" height="251" rx="90" fill="#7D41F5"/>
<g clip-path="url(#clip2_878_101302)">
<path d="M258.282 95V123H251.802V100.2H246.202V95H258.282ZM288.386 117.12H283.826V123H277.506V117.12H262.426V112.76L275.626 95H282.426L270.186 111.84H277.706V106.6H283.826V111.84H288.386V117.12ZM301.884 112L298.124 115.92V123H291.684V95H298.124V108.08L310.524 95H317.724L306.124 107.48L318.404 123H310.844L301.884 112ZM337.649 111.44H330.689V118.24H325.529V111.44H318.609V106.56H325.529V99.76H330.689V106.56H337.649V111.44Z" fill="white"/>
<path d="M268.248 159.144C266.072 159.144 264.376 158.52 263.16 157.272C261.944 156.024 261.336 154.208 261.336 151.824V142.2H263.112V151.752C263.112 153.704 263.552 155.16 264.432 156.12C265.312 157.08 266.584 157.56 268.248 157.56C269.928 157.56 271.208 157.08 272.088 156.12C272.968 155.16 273.408 153.704 273.408 151.752V142.2H275.136V151.824C275.136 154.208 274.528 156.024 273.312 157.272C272.112 158.52 270.424 159.144 268.248 159.144ZM283.512 159.12C282.488 159.12 281.504 158.976 280.56 158.688C279.632 158.384 278.904 158.008 278.376 157.56L279.144 156.216C279.672 156.632 280.336 156.976 281.136 157.248C281.936 157.504 282.768 157.632 283.632 157.632C284.784 157.632 285.632 157.456 286.176 157.104C286.736 156.736 287.016 156.224 287.016 155.568C287.016 155.104 286.864 154.744 286.56 154.488C286.256 154.216 285.872 154.016 285.408 153.888C284.944 153.744 284.328 153.608 283.56 153.48C282.536 153.288 281.712 153.096 281.088 152.904C280.464 152.696 279.928 152.352 279.48 151.872C279.048 151.392 278.832 150.728 278.832 149.88C278.832 148.824 279.272 147.96 280.152 147.288C281.032 146.616 282.256 146.28 283.824 146.28C284.64 146.28 285.456 146.392 286.272 146.616C287.088 146.824 287.76 147.104 288.288 147.456L287.544 148.824C286.504 148.104 285.264 147.744 283.824 147.744C282.736 147.744 281.912 147.936 281.352 148.32C280.808 148.704 280.536 149.208 280.536 149.832C280.536 150.312 280.688 150.696 280.992 150.984C281.312 151.272 281.704 151.488 282.168 151.632C282.632 151.76 283.272 151.896 284.088 152.04C285.096 152.232 285.904 152.424 286.512 152.616C287.12 152.808 287.64 153.136 288.072 153.6C288.504 154.064 288.72 154.704 288.72 155.52C288.72 156.624 288.256 157.504 287.328 158.16C286.416 158.8 285.144 159.12 283.512 159.12ZM302.862 153.216H292.302C292.398 154.528 292.902 155.592 293.814 156.408C294.726 157.208 295.878 157.608 297.27 157.608C298.054 157.608 298.774 157.472 299.43 157.2C300.086 156.912 300.654 156.496 301.134 155.952L302.094 157.056C301.534 157.728 300.83 158.24 299.982 158.592C299.15 158.944 298.23 159.12 297.222 159.12C295.926 159.12 294.774 158.848 293.766 158.304C292.774 157.744 291.998 156.976 291.438 156C290.878 155.024 290.598 153.92 290.598 152.688C290.598 151.456 290.862 150.352 291.39 149.376C291.934 148.4 292.67 147.64 293.598 147.096C294.542 146.552 295.598 146.28 296.766 146.28C297.934 146.28 298.982 146.552 299.91 147.096C300.838 147.64 301.566 148.4 302.094 149.376C302.622 150.336 302.886 151.44 302.886 152.688L302.862 153.216ZM296.766 147.744C295.55 147.744 294.526 148.136 293.694 148.92C292.878 149.688 292.414 150.696 292.302 151.944H301.254C301.142 150.696 300.67 149.688 299.838 148.92C299.022 148.136 297.998 147.744 296.766 147.744ZM307.986 148.848C308.386 148 308.978 147.36 309.762 146.928C310.562 146.496 311.546 146.28 312.714 146.28V147.936L312.306 147.912C310.978 147.912 309.938 148.32 309.186 149.136C308.434 149.952 308.058 151.096 308.058 152.568V159H306.354V146.376H307.986V148.848ZM319.277 159.12C318.253 159.12 317.269 158.976 316.325 158.688C315.397 158.384 314.669 158.008 314.141 157.56L314.909 156.216C315.437 156.632 316.101 156.976 316.901 157.248C317.701 157.504 318.533 157.632 319.397 157.632C320.549 157.632 321.397 157.456 321.941 157.104C322.501 156.736 322.781 156.224 322.781 155.568C322.781 155.104 322.629 154.744 322.325 154.488C322.021 154.216 321.637 154.016 321.173 153.888C320.709 153.744 320.093 153.608 319.325 153.48C318.301 153.288 317.477 153.096 316.853 152.904C316.229 152.696 315.693 152.352 315.245 151.872C314.813 151.392 314.597 150.728 314.597 149.88C314.597 148.824 315.037 147.96 315.917 147.288C316.797 146.616 318.021 146.28 319.589 146.28C320.405 146.28 321.221 146.392 322.037 146.616C322.853 146.824 323.525 147.104 324.053 147.456L323.309 148.824C322.269 148.104 321.029 147.744 319.589 147.744C318.501 147.744 317.677 147.936 317.117 148.32C316.573 148.704 316.301 149.208 316.301 149.832C316.301 150.312 316.453 150.696 316.757 150.984C317.077 151.272 317.469 151.488 317.933 151.632C318.397 151.76 319.037 151.896 319.853 152.04C320.861 152.232 321.669 152.424 322.277 152.616C322.885 152.808 323.405 153.136 323.837 153.6C324.269 154.064 324.485 154.704 324.485 155.52C324.485 156.624 324.021 157.504 323.093 158.16C322.181 158.8 320.909 159.12 319.277 159.12Z" fill="white"/>
</g>
</g>
<defs>
<clipPath id="clip0_878_101302">
<rect width="417.773" height="435" fill="white" transform="translate(0.227051)"/>
</clipPath>
<clipPath id="clip1_878_101302">
<rect width="101" height="82" fill="white" transform="translate(49.2271 83)"/>
</clipPath>
<clipPath id="clip2_878_101302">
<rect width="93.627" height="82" fill="white" transform="translate(245.687 85)"/>
</clipPath>
</defs>
</svg>
