<svg width="150" height="29" viewBox="0 0 150 29" fill="none" xmlns="http://www.w3.org/2000/svg">
<path d="M36.321 6.36667H39.8702V19.8894H46.4481V22.9415H36.321V6.36667Z" fill="#2E343F"/>
<path d="M48.0459 20.1262C47.5025 19.125 47.2289 17.9996 47.252 16.8606C47.2289 15.7217 47.5025 14.5963 48.0459 13.595C48.5625 12.6595 49.3449 11.898 50.2941 11.4068C51.346 10.8997 52.4987 10.6363 53.6664 10.6363C54.8342 10.6363 55.9869 10.8997 57.0388 11.4068C57.9866 11.9 58.7684 12.6609 59.287 13.595C59.8278 14.5971 60.1001 15.7221 60.0775 16.8606C60.1029 18.0037 59.8304 19.1336 59.287 20.1396C58.7649 21.0676 57.9837 21.8234 57.0388 22.3144C55.9869 22.8215 54.8342 23.0849 53.6664 23.0849C52.4987 23.0849 51.346 22.8215 50.2941 22.3144C49.3449 21.8232 48.5625 21.0618 48.0459 20.1262ZM56.6952 16.8606C56.7327 15.9441 56.4378 15.045 55.8646 14.3289C55.5948 14.013 55.2567 13.7627 54.8759 13.5968C54.495 13.431 54.0814 13.3539 53.6664 13.3715C53.2517 13.3548 52.8387 13.4337 52.4593 13.602C52.0799 13.7703 51.7442 14.0236 51.4782 14.3422C50.9085 15.0595 50.6182 15.959 50.661 16.874C50.6182 17.789 50.9085 18.6884 51.4782 19.4057C51.7442 19.7244 52.0799 19.9776 52.4593 20.1459C52.8387 20.3142 53.2517 20.3931 53.6664 20.3764C54.0836 20.3907 54.4985 20.3095 54.8795 20.139C55.2605 19.9685 55.5974 19.7131 55.8646 19.3924C56.4378 18.6762 56.7327 17.7771 56.6952 16.8606Z" fill="#2E343F"/>
<path d="M62.2424 20.1262C61.699 19.125 61.4254 17.9996 61.4485 16.8606C61.4254 15.7217 61.699 14.5963 62.2424 13.595C62.759 12.6595 63.5414 11.898 64.4906 11.4068C65.5419 10.8998 66.6941 10.6364 67.8613 10.6364C69.0285 10.6364 70.1806 10.8998 71.2319 11.4068C72.1811 11.898 72.9635 12.6595 73.4802 13.595C74.0235 14.5963 74.2971 15.7217 74.2741 16.8606C74.2999 18.0041 74.0262 19.1345 73.4802 20.1396C72.96 21.0691 72.1782 21.8253 71.2319 22.3144C70.1806 22.8215 69.0285 23.0848 67.8613 23.0848C66.6941 23.0848 65.5419 22.8215 64.4906 22.3144C63.5414 21.8232 62.759 21.0618 62.2424 20.1262ZM70.8917 16.8606C70.933 15.9458 70.6428 15.0469 70.0745 14.3289C69.7951 14.0231 69.455 13.7788 69.0759 13.6117C68.6969 13.4446 68.2872 13.3583 67.8729 13.3583C67.4587 13.3583 67.049 13.4446 66.6699 13.6117C66.2909 13.7788 65.9508 14.0231 65.6714 14.3289C65.109 15.0492 64.8248 15.9479 64.8708 16.8606C64.8286 17.775 65.1176 18.6739 65.6848 19.3924C65.9642 19.6982 66.3042 19.9425 66.6833 20.1096C67.0623 20.2767 67.472 20.363 67.8863 20.363C68.3005 20.363 68.7102 20.2767 69.0893 20.1096C69.4683 19.9425 69.8084 19.6982 70.0878 19.3924C70.6514 18.6725 70.9368 17.7737 70.8917 16.8606Z" fill="#2E343F"/>
<path d="M79.4543 6.36667V15.96L84.2343 10.7797H87.9736L83.6372 15.5364L88.2204 22.9415H84.3544L81.2789 18.0214L79.4543 19.9828V22.9415H76.1187V6.36667H79.4543Z" fill="#2E343F"/>
<path d="M92.3266 20.1963C92.8651 20.5536 93.502 20.7333 94.1479 20.71C94.7229 20.7396 95.2963 20.6249 95.8157 20.3764C96.0071 20.2898 96.1687 20.1487 96.2803 19.9707C96.3918 19.7927 96.4483 19.5857 96.4428 19.3757C96.453 19.2435 96.4328 19.1107 96.3836 18.9875C96.3344 18.8643 96.2577 18.7541 96.1593 18.6652C95.922 18.4912 95.6462 18.3767 95.3554 18.3317C95.0218 18.2616 94.4414 18.1782 93.6509 18.0848C92.7481 17.9764 91.8556 17.7945 90.9823 17.5411C90.3309 17.3538 89.7421 16.9942 89.2778 16.5004C88.832 15.9728 88.603 15.2956 88.6374 14.6057C88.6287 13.8539 88.8627 13.1193 89.3045 12.5109C89.7701 11.8785 90.4049 11.3905 91.1358 11.1033C92.001 10.7583 92.9264 10.5893 93.8577 10.6063C95.5144 10.6219 96.8486 10.9765 97.8605 11.6704C98.3464 11.9844 98.7495 12.4109 99.0358 12.9137C99.322 13.4165 99.4829 13.9809 99.5049 14.559H96.3361C96.3106 14.3288 96.2323 14.1076 96.1074 13.9127C95.9824 13.7177 95.8141 13.5542 95.6156 13.4349C95.1161 13.1252 94.535 12.973 93.9478 12.9979C93.4168 12.9733 92.8893 13.0957 92.4233 13.3515C92.2494 13.4415 92.1034 13.5773 92.0011 13.7443C91.8988 13.9113 91.8441 14.103 91.8429 14.2989C91.8353 14.4224 91.8596 14.5459 91.9133 14.6574C91.967 14.769 92.0485 14.8649 92.1498 14.936C92.3933 15.0941 92.6671 15.1998 92.9537 15.2462C93.2873 15.3062 93.8377 15.3796 94.6215 15.4563C96.2627 15.6476 97.5213 15.9989 98.3975 16.5104C99.2715 17.0241 99.7084 17.9014 99.7084 19.1489C99.7199 19.9019 99.474 20.6362 99.0113 21.2303C98.5033 21.861 97.8317 22.3399 97.0699 22.6146C96.1503 22.955 95.175 23.1202 94.1946 23.1016C92.5067 23.1016 91.1347 22.7269 90.0784 21.9775C89.5762 21.6364 89.1629 21.1802 88.8728 20.647C88.5827 20.1138 88.4242 19.5189 88.4106 18.9121H91.5561C91.5787 19.1705 91.6599 19.4205 91.7934 19.6429C91.9269 19.8654 92.1092 20.0546 92.3266 20.1963Z" fill="#2E343F"/>
<path d="M107.397 23.085C106.246 23.111 105.106 22.846 104.085 22.3144C103.155 21.8171 102.394 21.0557 101.897 20.1262C101.371 19.1192 101.107 17.9963 101.129 16.8606C101.104 15.7215 101.368 14.5945 101.897 13.585C102.399 12.6573 103.165 11.8994 104.098 11.4068C105.128 10.8741 106.275 10.6091 107.434 10.6363C109.059 10.6363 110.384 11.051 111.407 11.8805C112.453 12.7453 113.13 13.9762 113.301 15.3229H109.835C109.72 14.764 109.421 14.2601 108.985 13.8919C108.537 13.5282 107.973 13.3386 107.397 13.3582C106.998 13.3447 106.602 13.4256 106.24 13.5943C105.878 13.763 105.562 14.0147 105.316 14.3289C104.769 15.0565 104.493 15.9517 104.535 16.8606C104.493 17.7696 104.769 18.6648 105.316 19.3924C105.56 19.709 105.876 19.9633 106.238 20.1343C106.6 20.3053 106.997 20.3883 107.397 20.3764C107.985 20.3971 108.561 20.2039 109.018 19.8327C109.464 19.4489 109.761 18.9215 109.859 18.3417H113.291C113.135 19.7031 112.462 20.9524 111.41 21.8308C110.376 22.6669 109.038 23.085 107.397 23.085Z" fill="#2E343F"/>
<path d="M115.239 20.1262C114.696 19.125 114.422 17.9996 114.445 16.8606C114.422 15.7217 114.696 14.5963 115.239 13.595C115.756 12.6595 116.538 11.898 117.487 11.4068C118.539 10.8998 119.691 10.6364 120.858 10.6364C122.025 10.6364 123.177 10.8998 124.229 11.4068C125.178 11.898 125.96 12.6595 126.477 13.595C127.02 14.5963 127.294 15.7217 127.271 16.8606C127.297 18.0041 127.023 19.1345 126.477 20.1396C125.961 21.0667 125.186 21.8227 124.245 22.3144C123.194 22.8215 122.042 23.0848 120.875 23.0848C119.708 23.0848 118.555 22.8215 117.504 22.3144C116.549 21.8259 115.76 21.0642 115.239 20.1262ZM123.889 16.8606C123.93 15.9458 123.64 15.0469 123.071 14.3289C122.792 14.0231 122.452 13.7788 122.073 13.6117C121.694 13.4446 121.284 13.3583 120.87 13.3583C120.456 13.3583 120.046 13.4446 119.667 13.6117C119.288 13.7788 118.948 14.0231 118.668 14.3289C118.101 15.0473 117.812 15.9463 117.854 16.8606C117.812 17.775 118.101 18.6739 118.668 19.3924C118.948 19.6982 119.288 19.9425 119.667 20.1096C120.046 20.2767 120.456 20.363 120.87 20.363C121.284 20.363 121.694 20.2767 122.073 20.1096C122.452 19.9425 122.792 19.6982 123.071 19.3924C123.641 18.6749 123.932 17.7758 123.892 16.8606H123.889Z" fill="#2E343F"/>
<path d="M140.57 22.9415H137.615L137.305 21.4738C136.877 22.004 136.331 22.4261 135.711 22.706C135.09 22.9859 134.412 23.1157 133.732 23.0849C133.093 23.1093 132.456 23.0056 131.858 22.7799C131.26 22.5542 130.713 22.2111 130.25 21.7707C129.36 20.8968 128.915 19.4335 128.915 17.381V10.7797H132.251V16.9774C132.251 18.0848 132.444 18.9154 132.831 19.4758C133.033 19.7571 133.303 19.9822 133.616 20.1294C133.929 20.2765 134.274 20.3409 134.619 20.3164C134.994 20.3332 135.368 20.2568 135.706 20.0937C136.044 19.9307 136.337 19.6863 136.557 19.3824C137.018 18.7586 137.244 17.8847 137.244 16.7672V10.7797H140.58L140.57 22.9415Z" fill="#2E343F"/>
<path d="M141.754 13.595V10.7797H143.756V7.36736H147.091V10.7797H149.86V13.595H147.091V18.9321C147.061 19.2631 147.158 19.5933 147.361 19.856C147.487 19.9619 147.633 20.0416 147.79 20.0903C147.947 20.139 148.112 20.1557 148.275 20.1396H150V22.9549H147.261C144.94 22.9549 143.78 21.7952 143.782 19.4758V13.595H141.754Z" fill="#2E343F"/>
<path d="M17.3205 3.80029L0 13.8003V7.80029L12.1282 0.800293L17.3205 3.80029Z" fill="#2E343F"/>
<path d="M24.2564 7.80029V11.2618L3 23.5311L0 21.8003V18.5439L21.4231 6.17209L24.2564 7.80029Z" fill="#2E343F"/>
<path d="M7.10256 25.9029L24.2564 16.0054V21.8003L12.1282 28.8003L7.10256 25.9029Z" fill="#2E343F"/>
</svg>
